<?xml version="1.0" encoding="UTF-8"?>
<svg width="800" height="800" viewBox="0 0 800 800" fill="none" xmlns="http://www.w3.org/2000/svg">
  <path d="M400 50
    C 215 50, 100 250, 175 400
    C 225 500, 275 550, 300 600
    C 310 620, 325 680, 325 700
    Q 325 725, 300 725
    Q 275 725, 250 700
    L 250 650
    C 225 600, 200 550, 175 530 
    C 150 505, 125 450, 125 415
    C 125 365, 160 290, 200 250
    C 240 210, 300 150, 400 150
    C 500 150, 600 250, 600 350
    C 600 450, 550 550, 500 600
    C 450 650, 400 700, 350 725
    Q 325 738, 300 725
    Q 275 710, 275 680
    C 275 660, 285 640, 300 625
    C 320 605, 345 590, 375 575
    C 400 560, 430 550, 450 520
    C 470 490, 485 460, 495 430
    C 505 400, 510 370, 510 340
    C 510 310, 505 280, 495 255
    C 485 230, 475 210, 450 200 
    C 425 190, 400 190, 375 200
    C 350 210, 335 225, 325 245 
    C 315 265, 310 280, 310 300
    C 310 320, 315 340, 325 355
    C 335 370, 350 380, 365 385
    C 380 390, 400 390, 415 385
    C 430 380, 445 370, 450 350
    Q 455 340, 450 330
    Q 445 320, 435 320
    Q 425 320, 415 330
    C 405 340, 395 360, 400 380
    C 405 400, 425 410, 450 410" 
    stroke="#C99393" 
    stroke-width="25"
    fill="none" 
    stroke-linecap="round"
    stroke-linejoin="round" />
  <path d="M400 450 
    C 385 465, 375 480, 375 500
    C 375 520, 385 540, 400 550
    C 415 560, 435 560, 450 550
    C 465 540, 475 520, 475 500
    C 475 480, 465 465, 450 450
    C 435 435, 415 435, 400 450Z" 
    fill="#C99393" />
</svg>