<?xml version="1.0" encoding="UTF-8"?>
<svg width="800" height="800" viewBox="0 0 800 800" fill="none" xmlns="http://www.w3.org/2000/svg">
  <!-- Pregnancy symbol with improved shape -->
  <path d="M400 150
    C 325 150, 275 200, 250 250
    C 225 300, 215 350, 225 400
    C 235 450, 270 500, 300 525
    C 330 550, 350 575, 350 600
    C 350 625, 330 650, 300 650
    C 270 650, 250 625, 250 600
    L 250 575
    C 225 530, 200 480, 175 450
    C 150 420, 125 370, 125 325
    C 125 275, 150 210, 200 175
    C 250 140, 325 125, 400 125
    C 475 125, 550 150, 600 200
    C 650 250, 675 300, 675 350
    C 675 400, 650 450, 625 485
    C 600 520, 550 560, 500 600
    C 475 620, 450 630, 425 630
    C 400 630, 375 610, 375 585
    C 375 560, 390 535, 410 520
    C 430 505, 450 490, 475 475
    C 500 460, 520 445, 535 425
    C 550 405, 560 385, 565 365
    C 570 345, 570 320, 565 300
    C 560 280, 550 260, 530 245 
    C 510 230, 485 225, 460 230
    C 435 235, 420 250, 410 275 
    C 400 300, 400 330, 410 350
    C 420 370, 435 380, 460 380
    C 485 380, 495 360, 495 350
    Q 495 340, 485 335
    Q 475 330, 465 335
    Q 455 340, 450 350
    C 445 360, 450 375, 460 385
    C 470 395, 485 400, 500 395"
    stroke="#D7818A" 
    stroke-width="20"
    fill="none" 
    stroke-linecap="round"
    stroke-linejoin="round" />
  
  <!-- Small dot feature -->
  <circle cx="460" cy="500" r="25" fill="#D7818A" />
</svg>