<?xml version="1.0" encoding="UTF-8"?>
<svg width="800" height="800" viewBox="0 0 800 800" fill="none" xmlns="http://www.w3.org/2000/svg">
  <!-- Pregnancy logo outline with exact shape -->
  <path d="M362 192
    C 329 201, 307 227, 297 249
    C 287 270, 280 299, 286 335
    C 293 371, 315 408, 334 435
    C 348 454, 359 487, 358 518
    C 357 549, 342 580, 316 589
    C 300 595, 283 590, 269 573
    C 261 563, 256 550, 256 533
    C 252 510, 240 486, 225 464
    C 206 437, 189 414, 175 405
    C 161 397, 145 382, 142 353
    C 139 324, 150 287, 178 256
    C 206 225, 240 208, 283 199
    C 325 191, 375 193, 412 202
    C 449 211, 486 232, 511 258
    C 536 284, 553 318, 556 353
    C 559 387, 548 422, 529 452
    C 510 482, 476 507, 451 519
    C 427 530, 407 533, 388 532
    C 368 531, 350 521, 342 502
    C 334 483, 336 464, 343 451
    C 350 438, 360 430, 374 424
    C 388 418, 408 417, 433 420
    C 458 424, 476 430, 492 442
    C 508 454, 520 469, 520 488
    C 519 507, 506 521, 485 525
    C 465 529, 446 522, 434 512
    C 422 502, 416 487, 426 472
    C 436 457, 446 448, 450 448"
    stroke="#C38B90" 
    stroke-width="30"
    fill="none" 
    stroke-linecap="round"
    stroke-linejoin="round" />

  <!-- Heart in the center -->
  <path d="M400 450 
    C 384 435, 369 435, 360 445
    C 351 455, 351 475, 360 485
    C 369 495, 384 495, 400 480
    C 416 495, 431 495, 440 485
    C 449 475, 449 455, 440 445
    C 431 435, 416 435, 400 450Z" 
    fill="#C38B90" />
</svg>